<svg width="390" height="32" viewBox="0 0 390 32" fill="none" xmlns="http://www.w3.org/2000/svg">
<path d="M3.69891 14.6364V25H0.301181V1.72727H3.65345V10.3864H3.86936C4.27845 9.44697 4.90345 8.70076 5.74436 8.14773C6.58527 7.5947 7.68376 7.31818 9.03982 7.31818C10.2368 7.31818 11.2822 7.56439 12.1762 8.05682C13.0777 8.54924 13.7747 9.28409 14.2671 10.2614C14.7671 11.2311 15.0171 12.4432 15.0171 13.8977V25H11.6194V14.3068C11.6194 13.0265 11.2898 12.0341 10.6307 11.3295C9.97164 10.6174 9.05497 10.2614 7.88073 10.2614C7.0777 10.2614 6.358 10.4318 5.72164 10.7727C5.09285 11.1136 4.59664 11.6136 4.233 12.2727C3.87694 12.9242 3.69891 13.7121 3.69891 14.6364ZM27.6989 7.54545V10.2727H18.1648V7.54545H27.6989ZM20.7216 3.36364H24.1194V19.875C24.1194 20.5341 24.2178 21.0303 24.4148 21.3636C24.6118 21.6894 24.8656 21.9129 25.1762 22.0341C25.4944 22.1477 25.8391 22.2045 26.2103 22.2045C26.483 22.2045 26.7216 22.1856 26.9262 22.1477C27.1307 22.1098 27.2898 22.0795 27.4035 22.0568L28.0171 24.8636C27.8201 24.9394 27.5398 25.0152 27.1762 25.0909C26.8125 25.1742 26.358 25.2197 25.8125 25.2273C24.9186 25.2424 24.0853 25.0833 23.3125 24.75C22.5398 24.4167 21.9148 23.9015 21.4375 23.2045C20.9603 22.5076 20.7216 21.6326 20.7216 20.5795V3.36364ZM39.6052 7.54545V10.2727H30.0711V7.54545H39.6052ZM32.6279 3.36364H36.0256V19.875C36.0256 20.5341 36.1241 21.0303 36.3211 21.3636C36.518 21.6894 36.7718 21.9129 37.0824 22.0341C37.4006 22.1477 37.7453 22.2045 38.1165 22.2045C38.3892 22.2045 38.6279 22.1856 38.8324 22.1477C39.037 22.1098 39.1961 22.0795 39.3097 22.0568L39.9233 24.8636C39.7264 24.9394 39.4461 25.0152 39.0824 25.0909C38.7188 25.1742 38.2642 25.2197 37.7188 25.2273C36.8249 25.2424 35.9915 25.0833 35.2188 24.75C34.4461 24.4167 33.8211 23.9015 33.3438 23.2045C32.8665 22.5076 32.6279 21.6326 32.6279 20.5795V3.36364ZM43.3637 31.5455V7.54545H46.6819V10.375H46.966C47.1629 10.0114 47.447 9.59091 47.8182 9.11364C48.1894 8.63636 48.7046 8.2197 49.3637 7.86364C50.0228 7.5 50.894 7.31818 51.9773 7.31818C53.3864 7.31818 54.644 7.67424 55.75 8.38636C56.8561 9.09848 57.7235 10.125 58.3523 11.4659C58.9887 12.8068 59.3069 14.4205 59.3069 16.3068C59.3069 18.1932 58.9925 19.8106 58.3637 21.1591C57.7349 22.5 56.8713 23.5341 55.7728 24.2614C54.6743 24.9811 53.4205 25.3409 52.0114 25.3409C50.9508 25.3409 50.0834 25.1629 49.4091 24.8068C48.7425 24.4508 48.2197 24.0341 47.841 23.5568C47.4622 23.0795 47.1705 22.6553 46.966 22.2841H46.7614V31.5455H43.3637ZM46.6932 16.2727C46.6932 17.5 46.8713 18.5758 47.2273 19.5C47.5834 20.4242 48.0985 21.1477 48.7728 21.6705C49.447 22.1856 50.2728 22.4432 51.25 22.4432C52.2652 22.4432 53.1137 22.1742 53.7955 21.6364C54.4773 21.0909 54.9925 20.3523 55.341 19.4205C55.697 18.4886 55.875 17.4394 55.875 16.2727C55.875 15.1212 55.7008 14.0871 55.3523 13.1705C55.0114 12.2538 54.4963 11.5303 53.8069 11C53.125 10.4697 52.2728 10.2045 51.25 10.2045C50.2652 10.2045 49.4319 10.4583 48.75 10.9659C48.0758 11.4735 47.5644 12.1818 47.216 13.0909C46.8675 14 46.6932 15.0606 46.6932 16.2727ZM65.3523 25.2159C64.7311 25.2159 64.197 24.9962 63.75 24.5568C63.3031 24.1098 63.0796 23.572 63.0796 22.9432C63.0796 22.322 63.3031 21.7917 63.75 21.3523C64.197 20.9053 64.7311 20.6818 65.3523 20.6818C65.9735 20.6818 66.5076 20.9053 66.9546 21.3523C67.4016 21.7917 67.625 22.322 67.625 22.9432C67.625 23.3598 67.519 23.7424 67.3069 24.0909C67.1023 24.4318 66.8296 24.7045 66.4887 24.9091C66.1478 25.1136 65.769 25.2159 65.3523 25.2159ZM65.3523 12.5114C64.7311 12.5114 64.197 12.2879 63.75 11.8409C63.3031 11.3939 63.0796 10.8598 63.0796 10.2386C63.0796 9.61742 63.3031 9.08712 63.75 8.64773C64.197 8.20076 64.7311 7.97727 65.3523 7.97727C65.9735 7.97727 66.5076 8.20076 66.9546 8.64773C67.4016 9.08712 67.625 9.61742 67.625 10.2386C67.625 10.6553 67.519 11.0379 67.3069 11.3864C67.1023 11.7273 66.8296 12 66.4887 12.2045C66.1478 12.4091 65.769 12.5114 65.3523 12.5114ZM81.0398 0.636362L73.5398 28.5H70.5057L78.0057 0.636362H81.0398ZM92.7898 0.636362L85.2898 28.5H82.2557L89.7557 0.636362H92.7898ZM99.0739 1.72727V25H95.6762V1.72727H99.0739ZM110.997 25.3523C109.361 25.3523 107.933 24.9773 106.713 24.2273C105.493 23.4773 104.546 22.428 103.872 21.0795C103.198 19.7311 102.861 18.1553 102.861 16.3523C102.861 14.5417 103.198 12.9583 103.872 11.6023C104.546 10.2462 105.493 9.19318 106.713 8.44318C107.933 7.69318 109.361 7.31818 110.997 7.31818C112.634 7.31818 114.062 7.69318 115.281 8.44318C116.501 9.19318 117.448 10.2462 118.122 11.6023C118.796 12.9583 119.134 14.5417 119.134 16.3523C119.134 18.1553 118.796 19.7311 118.122 21.0795C117.448 22.428 116.501 23.4773 115.281 24.2273C114.062 24.9773 112.634 25.3523 110.997 25.3523ZM111.009 22.5C112.069 22.5 112.948 22.2197 113.645 21.6591C114.342 21.0985 114.857 20.3523 115.19 19.4205C115.531 18.4886 115.702 17.4621 115.702 16.3409C115.702 15.2273 115.531 14.2045 115.19 13.2727C114.857 12.3333 114.342 11.5795 113.645 11.0114C112.948 10.4432 112.069 10.1591 111.009 10.1591C109.94 10.1591 109.054 10.4432 108.349 11.0114C107.653 11.5795 107.134 12.3333 106.793 13.2727C106.459 14.2045 106.293 15.2273 106.293 16.3409C106.293 17.4621 106.459 18.4886 106.793 19.4205C107.134 20.3523 107.653 21.0985 108.349 21.6591C109.054 22.2197 109.94 22.5 111.009 22.5ZM130.278 25.3523C128.589 25.3523 127.135 24.9697 125.915 24.2045C124.703 23.4318 123.771 22.3674 123.119 21.0114C122.468 19.6553 122.142 18.1023 122.142 16.3523C122.142 14.5795 122.475 13.0152 123.142 11.6591C123.809 10.2955 124.748 9.23106 125.96 8.46591C127.172 7.70076 128.6 7.31818 130.244 7.31818C131.57 7.31818 132.752 7.56439 133.79 8.05682C134.828 8.54167 135.665 9.22348 136.301 10.1023C136.945 10.9811 137.328 12.0076 137.449 13.1818H134.142C133.96 12.3636 133.544 11.6591 132.892 11.0682C132.248 10.4773 131.385 10.1818 130.301 10.1818C129.354 10.1818 128.525 10.4318 127.813 10.9318C127.108 11.4242 126.559 12.1288 126.165 13.0455C125.771 13.9545 125.574 15.0303 125.574 16.2727C125.574 17.5455 125.767 18.6439 126.153 19.5682C126.54 20.4924 127.085 21.2083 127.79 21.7159C128.502 22.2235 129.339 22.4773 130.301 22.4773C130.945 22.4773 131.528 22.3598 132.051 22.125C132.581 21.8826 133.025 21.5379 133.381 21.0909C133.744 20.6439 133.998 20.1061 134.142 19.4773H137.449C137.328 20.6061 136.96 21.6136 136.347 22.5C135.733 23.3864 134.911 24.0833 133.881 24.5909C132.858 25.0985 131.657 25.3523 130.278 25.3523ZM146.162 25.3864C145.056 25.3864 144.056 25.1818 143.162 24.7727C142.268 24.3561 141.56 23.7538 141.037 22.9659C140.522 22.178 140.264 21.2121 140.264 20.0682C140.264 19.0833 140.454 18.2727 140.832 17.6364C141.211 17 141.723 16.4962 142.367 16.125C143.01 15.7538 143.73 15.4735 144.526 15.2841C145.321 15.0947 146.132 14.9508 146.957 14.8523C148.003 14.7311 148.851 14.6326 149.503 14.5568C150.154 14.4735 150.628 14.3409 150.923 14.1591C151.219 13.9773 151.367 13.6818 151.367 13.2727V13.1932C151.367 12.2008 151.086 11.4318 150.526 10.8864C149.973 10.3409 149.147 10.0682 148.048 10.0682C146.904 10.0682 146.003 10.322 145.344 10.8295C144.692 11.3295 144.242 11.8864 143.992 12.5L140.798 11.7727C141.177 10.7121 141.73 9.85606 142.457 9.20455C143.192 8.54545 144.037 8.06818 144.992 7.77273C145.946 7.4697 146.95 7.31818 148.003 7.31818C148.7 7.31818 149.438 7.40152 150.219 7.56818C151.007 7.72727 151.742 8.02273 152.423 8.45454C153.113 8.88636 153.677 9.50379 154.117 10.3068C154.556 11.1023 154.776 12.1364 154.776 13.4091V25H151.457V22.6136H151.321C151.101 23.053 150.772 23.4848 150.332 23.9091C149.893 24.3333 149.329 24.6856 148.639 24.9659C147.95 25.2462 147.124 25.3864 146.162 25.3864ZM146.901 22.6591C147.84 22.6591 148.643 22.4735 149.31 22.1023C149.984 21.7311 150.495 21.2462 150.844 20.6477C151.2 20.0417 151.378 19.3939 151.378 18.7045V16.4545C151.257 16.5758 151.022 16.6894 150.673 16.7955C150.332 16.8939 149.942 16.9811 149.503 17.0568C149.063 17.125 148.635 17.1894 148.219 17.25C147.802 17.303 147.454 17.3485 147.173 17.3864C146.514 17.4697 145.912 17.6098 145.367 17.8068C144.829 18.0038 144.397 18.2879 144.071 18.6591C143.753 19.0227 143.594 19.5076 143.594 20.1136C143.594 20.9545 143.904 21.5909 144.526 22.0227C145.147 22.447 145.938 22.6591 146.901 22.6591ZM162.699 1.72727V25H159.301V1.72727H162.699ZM170.668 14.6364V25H167.27V1.72727H170.622V10.3864H170.838C171.247 9.44697 171.872 8.70076 172.713 8.14773C173.554 7.5947 174.653 7.31818 176.009 7.31818C177.206 7.31818 178.251 7.56439 179.145 8.05682C180.046 8.54924 180.743 9.28409 181.236 10.2614C181.736 11.2311 181.986 12.4432 181.986 13.8977V25H178.588V14.3068C178.588 13.0265 178.259 12.0341 177.599 11.3295C176.94 10.6174 176.024 10.2614 174.849 10.2614C174.046 10.2614 173.327 10.4318 172.69 10.7727C172.062 11.1136 171.565 11.6136 171.202 12.2727C170.846 12.9242 170.668 13.7121 170.668 14.6364ZM193.872 25.3523C192.236 25.3523 190.808 24.9773 189.588 24.2273C188.368 23.4773 187.421 22.428 186.747 21.0795C186.073 19.7311 185.736 18.1553 185.736 16.3523C185.736 14.5417 186.073 12.9583 186.747 11.6023C187.421 10.2462 188.368 9.19318 189.588 8.44318C190.808 7.69318 192.236 7.31818 193.872 7.31818C195.509 7.31818 196.937 7.69318 198.156 8.44318C199.376 9.19318 200.323 10.2462 200.997 11.6023C201.671 12.9583 202.009 14.5417 202.009 16.3523C202.009 18.1553 201.671 19.7311 200.997 21.0795C200.323 22.428 199.376 23.4773 198.156 24.2273C196.937 24.9773 195.509 25.3523 193.872 25.3523ZM193.884 22.5C194.944 22.5 195.823 22.2197 196.52 21.6591C197.217 21.0985 197.732 20.3523 198.065 19.4205C198.406 18.4886 198.577 17.4621 198.577 16.3409C198.577 15.2273 198.406 14.2045 198.065 13.2727C197.732 12.3333 197.217 11.5795 196.52 11.0114C195.823 10.4432 194.944 10.1591 193.884 10.1591C192.815 10.1591 191.929 10.4432 191.224 11.0114C190.528 11.5795 190.009 12.3333 189.668 13.2727C189.334 14.2045 189.168 15.2273 189.168 16.3409C189.168 17.4621 189.334 18.4886 189.668 19.4205C190.009 20.3523 190.528 21.0985 191.224 21.6591C191.929 22.2197 192.815 22.5 193.884 22.5ZM218.881 11.8068L215.801 12.3523C215.672 11.9583 215.468 11.5833 215.188 11.2273C214.915 10.8712 214.544 10.5795 214.074 10.3523C213.604 10.125 213.017 10.0114 212.313 10.0114C211.35 10.0114 210.547 10.2273 209.903 10.6591C209.26 11.0833 208.938 11.6326 208.938 12.3068C208.938 12.8902 209.153 13.3598 209.585 13.7159C210.017 14.072 210.714 14.3636 211.676 14.5909L214.449 15.2273C216.055 15.5985 217.252 16.1705 218.04 16.9432C218.828 17.7159 219.222 18.7197 219.222 19.9545C219.222 21 218.919 21.9318 218.313 22.75C217.714 23.5606 216.877 24.197 215.801 24.6591C214.733 25.1212 213.494 25.3523 212.085 25.3523C210.131 25.3523 208.536 24.9356 207.301 24.1023C206.066 23.2614 205.309 22.0682 205.028 20.5227L208.313 20.0227C208.517 20.8788 208.938 21.5265 209.574 21.9659C210.21 22.3977 211.04 22.6136 212.063 22.6136C213.176 22.6136 214.066 22.3826 214.733 21.9205C215.4 21.4508 215.733 20.8788 215.733 20.2045C215.733 19.6591 215.528 19.2008 215.119 18.8295C214.718 18.4583 214.1 18.178 213.267 17.9886L210.313 17.3409C208.684 16.9697 207.479 16.3788 206.699 15.5682C205.926 14.7576 205.54 13.7311 205.54 12.4886C205.54 11.4583 205.828 10.5568 206.403 9.78409C206.979 9.01136 207.775 8.40909 208.79 7.97727C209.805 7.53788 210.968 7.31818 212.278 7.31818C214.165 7.31818 215.65 7.72727 216.733 8.54545C217.816 9.35606 218.532 10.4432 218.881 11.8068ZM231.105 7.54545V10.2727H221.571V7.54545H231.105ZM224.128 3.36364H227.526V19.875C227.526 20.5341 227.624 21.0303 227.821 21.3636C228.018 21.6894 228.272 21.9129 228.582 22.0341C228.901 22.1477 229.245 22.2045 229.617 22.2045C229.889 22.2045 230.128 22.1856 230.332 22.1477C230.537 22.1098 230.696 22.0795 230.81 22.0568L231.423 24.8636C231.226 24.9394 230.946 25.0152 230.582 25.0909C230.219 25.1742 229.764 25.2197 229.219 25.2273C228.325 25.2424 227.492 25.0833 226.719 24.75C225.946 24.4167 225.321 23.9015 224.844 23.2045C224.367 22.5076 224.128 21.6326 224.128 20.5795V3.36364ZM237.102 25.2159C236.481 25.2159 235.947 24.9962 235.5 24.5568C235.053 24.1098 234.83 23.572 234.83 22.9432C234.83 22.322 235.053 21.7917 235.5 21.3523C235.947 20.9053 236.481 20.6818 237.102 20.6818C237.724 20.6818 238.258 20.9053 238.705 21.3523C239.152 21.7917 239.375 22.322 239.375 22.9432C239.375 23.3598 239.269 23.7424 239.057 24.0909C238.852 24.4318 238.58 24.7045 238.239 24.9091C237.898 25.1136 237.519 25.2159 237.102 25.2159ZM237.102 12.5114C236.481 12.5114 235.947 12.2879 235.5 11.8409C235.053 11.3939 234.83 10.8598 234.83 10.2386C234.83 9.61742 235.053 9.08712 235.5 8.64773C235.947 8.20076 236.481 7.97727 237.102 7.97727C237.724 7.97727 238.258 8.20076 238.705 8.64773C239.152 9.08712 239.375 9.61742 239.375 10.2386C239.375 10.6553 239.269 11.0379 239.057 11.3864C238.852 11.7273 238.58 12 238.239 12.2045C237.898 12.4091 237.519 12.5114 237.102 12.5114ZM251.983 25.3182C250.422 25.3182 249.028 25.0492 247.801 24.5114C246.581 23.9735 245.616 23.2273 244.903 22.2727C244.199 21.3106 243.82 20.197 243.767 18.9318H247.335C247.381 19.6212 247.612 20.2197 248.028 20.7273C248.453 21.2273 249.006 21.6136 249.688 21.8864C250.369 22.1591 251.127 22.2955 251.96 22.2955C252.877 22.2955 253.688 22.1364 254.392 21.8182C255.104 21.5 255.661 21.0568 256.063 20.4886C256.464 19.9129 256.665 19.25 256.665 18.5C256.665 17.7197 256.464 17.0341 256.063 16.4432C255.669 15.8447 255.089 15.375 254.324 15.0341C253.566 14.6932 252.65 14.5227 251.574 14.5227H249.608V11.6591H251.574C252.438 11.6591 253.195 11.5038 253.847 11.1932C254.506 10.8826 255.021 10.4508 255.392 9.89773C255.763 9.33712 255.949 8.68182 255.949 7.93182C255.949 7.21212 255.786 6.58712 255.46 6.05682C255.142 5.51894 254.688 5.09848 254.097 4.79545C253.513 4.49242 252.824 4.34091 252.028 4.34091C251.271 4.34091 250.563 4.48106 249.903 4.76136C249.252 5.03409 248.722 5.42803 248.313 5.94318C247.903 6.45076 247.684 7.0606 247.653 7.77273H244.256C244.294 6.51515 244.665 5.40909 245.369 4.45454C246.081 3.5 247.021 2.75379 248.188 2.21591C249.354 1.67803 250.65 1.40909 252.074 1.40909C253.566 1.40909 254.854 1.70076 255.938 2.28409C257.028 2.85985 257.869 3.62879 258.46 4.59091C259.059 5.55303 259.354 6.60606 259.347 7.75C259.354 9.05303 258.991 10.1591 258.256 11.0682C257.528 11.9773 256.559 12.5871 255.347 12.8977V13.0795C256.892 13.3144 258.089 13.928 258.938 14.9205C259.794 15.9129 260.218 17.1439 260.21 18.6136C260.218 19.8939 259.862 21.0417 259.142 22.0568C258.43 23.072 257.456 23.8712 256.222 24.4545C254.987 25.0303 253.574 25.3182 251.983 25.3182ZM272.608 25.3864C270.813 25.3788 269.278 24.9053 268.006 23.9659C266.733 23.0265 265.76 21.6591 265.085 19.8636C264.411 18.0682 264.074 15.9053 264.074 13.375C264.074 10.8523 264.411 8.69697 265.085 6.90909C265.767 5.12121 266.744 3.75758 268.017 2.81818C269.297 1.87879 270.828 1.40909 272.608 1.40909C274.388 1.40909 275.915 1.88257 277.188 2.82954C278.46 3.76894 279.434 5.13258 280.108 6.92045C280.79 8.70076 281.131 10.8523 281.131 13.375C281.131 15.9129 280.794 18.0795 280.119 19.875C279.445 21.6629 278.472 23.0303 277.199 23.9773C275.926 24.9167 274.396 25.3864 272.608 25.3864ZM272.608 22.3523C274.184 22.3523 275.415 21.5833 276.301 20.0455C277.195 18.5076 277.642 16.2841 277.642 13.375C277.642 11.4432 277.438 9.81061 277.028 8.47727C276.627 7.13636 276.047 6.12121 275.29 5.43182C274.54 4.73485 273.646 4.38636 272.608 4.38636C271.04 4.38636 269.809 5.15909 268.915 6.70454C268.021 8.25 267.57 10.4735 267.563 13.375C267.563 15.3144 267.763 16.9545 268.165 18.2955C268.574 19.6288 269.153 20.6402 269.903 21.3295C270.653 22.0114 271.555 22.3523 272.608 22.3523ZM293.264 25.3864C291.469 25.3788 289.935 24.9053 288.662 23.9659C287.389 23.0265 286.416 21.6591 285.742 19.8636C285.067 18.0682 284.73 15.9053 284.73 13.375C284.73 10.8523 285.067 8.69697 285.742 6.90909C286.423 5.12121 287.401 3.75758 288.673 2.81818C289.954 1.87879 291.484 1.40909 293.264 1.40909C295.045 1.40909 296.571 1.88257 297.844 2.82954C299.117 3.76894 300.09 5.13258 300.764 6.92045C301.446 8.70076 301.787 10.8523 301.787 13.375C301.787 15.9129 301.45 18.0795 300.776 19.875C300.101 21.6629 299.128 23.0303 297.855 23.9773C296.582 24.9167 295.052 25.3864 293.264 25.3864ZM293.264 22.3523C294.84 22.3523 296.071 21.5833 296.957 20.0455C297.851 18.5076 298.298 16.2841 298.298 13.375C298.298 11.4432 298.094 9.81061 297.685 8.47727C297.283 7.13636 296.704 6.12121 295.946 5.43182C295.196 4.73485 294.302 4.38636 293.264 4.38636C291.696 4.38636 290.465 5.15909 289.571 6.70454C288.677 8.25 288.226 10.4735 288.219 13.375C288.219 15.3144 288.42 16.9545 288.821 18.2955C289.23 19.6288 289.81 20.6402 290.56 21.3295C291.31 22.0114 292.211 22.3523 293.264 22.3523ZM313.92 25.3864C312.125 25.3788 310.591 24.9053 309.318 23.9659C308.045 23.0265 307.072 21.6591 306.398 19.8636C305.724 18.0682 305.386 15.9053 305.386 13.375C305.386 10.8523 305.724 8.69697 306.398 6.90909C307.08 5.12121 308.057 3.75758 309.33 2.81818C310.61 1.87879 312.14 1.40909 313.92 1.40909C315.701 1.40909 317.227 1.88257 318.5 2.82954C319.773 3.76894 320.746 5.13258 321.42 6.92045C322.102 8.70076 322.443 10.8523 322.443 13.375C322.443 15.9129 322.106 18.0795 321.432 19.875C320.758 21.6629 319.784 23.0303 318.511 23.9773C317.239 24.9167 315.708 25.3864 313.92 25.3864ZM313.92 22.3523C315.496 22.3523 316.727 21.5833 317.614 20.0455C318.508 18.5076 318.955 16.2841 318.955 13.375C318.955 11.4432 318.75 9.81061 318.341 8.47727C317.939 7.13636 317.36 6.12121 316.602 5.43182C315.852 4.73485 314.958 4.38636 313.92 4.38636C312.352 4.38636 311.121 5.15909 310.227 6.70454C309.333 8.25 308.883 10.4735 308.875 13.375C308.875 15.3144 309.076 16.9545 309.477 18.2955C309.886 19.6288 310.466 20.6402 311.216 21.3295C311.966 22.0114 312.867 22.3523 313.92 22.3523ZM335.384 0.636362L327.884 28.5H324.849L332.349 0.636362H335.384ZM341.668 14.6364V25H338.27V7.54545H341.531V10.3864H341.747C342.149 9.46212 342.778 8.7197 343.634 8.15909C344.497 7.59848 345.584 7.31818 346.895 7.31818C348.084 7.31818 349.126 7.56818 350.02 8.06818C350.914 8.56061 351.607 9.29545 352.099 10.2727C352.592 11.25 352.838 12.4583 352.838 13.8977V25H349.44V14.3068C349.44 13.0417 349.111 12.053 348.452 11.3409C347.793 10.6212 346.887 10.2614 345.736 10.2614C344.948 10.2614 344.247 10.4318 343.634 10.7727C343.028 11.1136 342.546 11.6136 342.19 12.2727C341.842 12.9242 341.668 13.7121 341.668 14.6364ZM362.474 25.3864C361.368 25.3864 360.368 25.1818 359.474 24.7727C358.581 24.3561 357.872 23.7538 357.349 22.9659C356.834 22.178 356.577 21.2121 356.577 20.0682C356.577 19.0833 356.766 18.2727 357.145 17.6364C357.524 17 358.035 16.4962 358.679 16.125C359.323 15.7538 360.043 15.4735 360.838 15.2841C361.634 15.0947 362.444 14.9508 363.27 14.8523C364.315 14.7311 365.164 14.6326 365.815 14.5568C366.467 14.4735 366.94 14.3409 367.236 14.1591C367.531 13.9773 367.679 13.6818 367.679 13.2727V13.1932C367.679 12.2008 367.399 11.4318 366.838 10.8864C366.285 10.3409 365.459 10.0682 364.361 10.0682C363.217 10.0682 362.315 10.322 361.656 10.8295C361.005 11.3295 360.554 11.8864 360.304 12.5L357.111 11.7727C357.49 10.7121 358.043 9.85606 358.77 9.20455C359.505 8.54545 360.349 8.06818 361.304 7.77273C362.259 7.4697 363.262 7.31818 364.315 7.31818C365.012 7.31818 365.751 7.40152 366.531 7.56818C367.319 7.72727 368.054 8.02273 368.736 8.45454C369.425 8.88636 369.99 9.50379 370.429 10.3068C370.868 11.1023 371.088 12.1364 371.088 13.4091V25H367.77V22.6136H367.634C367.414 23.053 367.084 23.4848 366.645 23.9091C366.206 24.3333 365.641 24.6856 364.952 24.9659C364.262 25.2462 363.437 25.3864 362.474 25.3864ZM363.213 22.6591C364.153 22.6591 364.956 22.4735 365.622 22.1023C366.296 21.7311 366.808 21.2462 367.156 20.6477C367.512 20.0417 367.69 19.3939 367.69 18.7045V16.4545C367.569 16.5758 367.334 16.6894 366.986 16.7955C366.645 16.8939 366.255 16.9811 365.815 17.0568C365.376 17.125 364.948 17.1894 364.531 17.25C364.115 17.303 363.766 17.3485 363.486 17.3864C362.827 17.4697 362.224 17.6098 361.679 17.8068C361.141 18.0038 360.709 18.2879 360.384 18.6591C360.065 19.0227 359.906 19.5076 359.906 20.1136C359.906 20.9545 360.217 21.5909 360.838 22.0227C361.459 22.447 362.251 22.6591 363.213 22.6591ZM389.92 7.54545L383.591 25H379.955L373.614 7.54545H377.261L381.682 20.9773H381.864L386.273 7.54545H389.92Z" fill="white"/>
</svg>
